<?xml version="1.0" standalone="no"?>
<!DOCTYPE svg PUBLIC "-//W3C//DTD SVG 20010904//EN"
 "http://www.w3.org/TR/2001/REC-SVG-20010904/DTD/svg10.dtd">
<svg version="1.0" xmlns="http://www.w3.org/2000/svg"
 width="883.000000pt" height="883.000000pt" viewBox="0 0 883.000000 883.000000"
 preserveAspectRatio="xMidYMid meet">
<metadata>
Created by potrace 1.14, written by Peter Selinger 2001-2017
</metadata>
<g transform="translate(0.000000,883.000000) scale(0.100000,-0.100000)"
fill="#000000" stroke="none">
<path d="M890 4290 c0 -5 5 -10 10 -10 6 0 10 5 10 10 0 6 -4 10 -10 10 -5 0
-10 -4 -10 -10z"/>
<path d="M6791 4037 c-6 -6 -11 -24 -11 -39 0 -16 -31 -91 -70 -167 -56 -112
-73 -138 -87 -135 -10 3 -27 -2 -38 -10 -17 -12 -18 -18 -7 -33 6 -10 15 -24
18 -30 9 -18 -110 -258 -141 -285 -30 -26 -31 -41 -7 -65 10 -10 34 -40 52
-68 51 -76 136 -189 228 -303 75 -94 82 -106 69 -120 -9 -10 -17 -30 -19 -47
-2 -20 -9 -31 -22 -33 -16 -4 -18 0 -12 32 8 41 -5 48 -22 11 -16 -34 -37 -31
-65 10 -13 19 -45 53 -71 76 -45 40 -47 44 -41 80 8 45 -2 52 -16 11 -15 -42
-47 -49 -184 -36 -66 6 -121 12 -123 12 -1 1 4 15 13 32 18 34 18 40 4 40 -5
0 -17 -16 -25 -36 l-15 -36 -87 6 c-48 4 -111 9 -140 12 l-54 6 6 34 c5 21 3
34 -4 34 -6 0 -13 -13 -16 -29 -4 -17 -11 -32 -18 -34 -6 -2 -71 1 -144 7
l-133 10 6 25 c4 14 7 28 8 31 1 3 -2 7 -8 8 -5 2 -14 -10 -20 -27 -11 -37
-20 -38 -188 -19 -116 12 -111 9 -90 66 3 6 -1 12 -9 12 -8 0 -18 -15 -23 -32
-11 -37 5 -35 -178 -22 l-108 7 6 39 c6 31 4 38 -9 38 -10 0 -16 -9 -16 -22 0
-47 -11 -51 -106 -44 -49 3 -108 9 -132 12 -41 6 -43 8 -40 37 4 43 -18 45
-26 2 -7 -34 -9 -35 -39 -31 -18 3 -72 8 -122 11 -49 4 -95 11 -102 17 -7 6
-13 23 -13 39 0 36 -17 38 -26 4 -3 -14 -15 -30 -25 -36 -11 -5 -19 -17 -19
-27 -1 -36 -89 -275 -110 -297 -20 -21 -22 -32 -18 -94 3 -59 8 -75 30 -98 26
-27 98 -163 113 -213 4 -14 14 -34 21 -45 8 -11 14 -29 14 -42 0 -12 5 -25 10
-28 6 -3 10 -15 10 -26 0 -10 5 -19 10 -19 6 0 10 5 10 11 0 7 11 22 24 34 18
17 42 24 98 29 40 4 92 9 115 12 41 6 42 6 45 -27 l3 -34 17 36 16 36 84 6
c46 4 105 10 131 13 48 7 48 7 41 -20 -9 -38 18 -34 33 4 7 18 19 30 30 31 10
0 68 6 128 13 61 8 113 12 117 9 4 -2 3 -15 -2 -28 -13 -35 5 -31 19 4 13 31
13 31 204 47 l78 7 -6 -25 c-10 -40 13 -43 29 -5 15 37 12 37 200 53 l79 7 -7
-26 c-9 -38 16 -36 31 2 10 27 15 30 79 36 38 3 97 10 132 14 l62 8 -6 -34
c-8 -44 10 -43 32 2 9 19 21 35 28 36 6 0 64 6 129 13 107 11 145 8 117 -9
-13 -8 -13 -45 -1 -45 5 0 13 9 16 20 4 11 24 29 46 40 23 12 39 28 39 38 0
10 18 39 40 66 22 26 40 51 40 55 0 3 14 12 30 20 35 15 60 2 60 -31 0 -11 5
-28 11 -39 13 -26 33 -11 49 37 11 34 12 34 71 34 67 0 65 5 48 -97 -15 -90
-1 -146 44 -173 18 -11 43 -20 56 -20 35 0 87 60 100 117 16 62 34 86 68 87
16 1 27 6 26 13 -3 15 31 39 69 48 l28 7 -21 -47 c-12 -26 -21 -64 -22 -84 0
-20 -3 -40 -7 -46 -4 -5 -24 -50 -45 -100 -21 -49 -49 -100 -62 -112 -13 -12
-23 -28 -23 -35 0 -15 -59 -159 -89 -218 -10 -19 -24 -53 -31 -75 -7 -22 -26
-69 -43 -105 -16 -36 -46 -108 -67 -160 -44 -110 -101 -241 -125 -288 -19 -37
-11 -56 21 -50 12 2 21 16 26 40 11 53 85 198 102 198 7 0 42 68 82 161 38 89
74 164 81 166 7 3 17 22 23 44 6 21 31 82 55 134 25 53 45 101 45 107 0 13
107 262 166 385 l43 92 42 -14 c59 -21 148 -73 158 -93 8 -17 41 -202 61 -342
6 -41 17 -115 24 -165 8 -49 31 -191 50 -315 20 -124 40 -241 46 -261 5 -20
12 -63 15 -95 3 -33 10 -86 16 -119 34 -214 81 -517 94 -610 8 -60 22 -153 30
-205 30 -192 55 -362 55 -376 0 -11 19 -14 84 -14 l84 0 -2 48 c-1 26 -5 52
-8 58 -4 5 -9 30 -13 54 -3 25 -19 122 -35 215 -16 94 -49 296 -75 450 -25
154 -50 305 -56 335 -5 30 -11 73 -12 95 -1 22 -5 45 -9 50 -3 6 -9 37 -13 70
-7 61 -67 423 -105 635 -12 63 -27 158 -35 210 -26 180 -45 305 -51 331 -4 21
-1 28 16 32 20 5 21 10 15 49 -12 69 -12 73 15 76 33 4 54 31 39 49 -6 7 -9
23 -6 35 4 14 0 26 -11 34 -24 19 -30 17 -34 -8 -4 -27 -48 -37 -66 -15 -7 8
-28 115 -48 238 -20 123 -39 231 -43 239 -10 19 -77 25 -115 11 -24 -10 -26
-14 -20 -46 10 -56 -17 -36 -95 73 -38 54 -84 115 -102 138 -51 62 -182 218
-189 224 -3 3 -34 39 -70 80 -35 41 -104 116 -152 166 -48 50 -88 96 -88 101
0 15 -37 22 -49 10z m77 -142 c29 -35 52 -72 52 -80 0 -17 -124 -261 -142
-280 -6 -7 -12 -5 -18 5 -8 15 -25 35 -76 92 -13 15 -24 31 -24 35 -1 12 144
293 150 293 4 0 30 -29 58 -65z m134 -164 c26 -33 51 -66 54 -75 3 -9 -14 -52
-42 -103 -26 -49 -58 -109 -71 -135 -13 -27 -26 -48 -30 -48 -13 0 -103 104
-109 126 -3 12 8 44 29 85 19 35 51 97 71 137 21 39 41 72 44 71 4 0 28 -26
54 -58z m125 -148 c73 -78 74 -66 -13 -212 -42 -72 -80 -131 -83 -131 -3 0
-19 18 -35 40 -16 22 -38 43 -49 46 -12 4 -16 11 -12 22 11 29 146 272 151
272 3 0 21 -17 41 -37z m-456 -45 c25 -29 50 -61 58 -70 11 -15 4 -35 -59
-150 -40 -73 -74 -135 -76 -137 -5 -5 -51 47 -89 100 l-26 37 68 136 c37 75
71 136 74 136 4 0 26 -24 50 -52z m587 -107 c23 -27 42 -54 42 -60 0 -11 -135
-236 -158 -263 -13 -16 -17 -14 -43 22 -16 22 -29 46 -29 53 0 7 -5 18 -10 23
-7 7 16 54 67 141 43 73 81 132 84 132 3 1 25 -21 47 -48z m-428 -102 c0 -9 7
-22 15 -29 22 -18 19 -36 -19 -99 -18 -31 -48 -84 -66 -118 -18 -35 -36 -63
-40 -63 -12 0 -111 131 -108 143 2 7 34 70 73 141 l69 129 38 -44 c21 -24 38
-51 38 -60z m535 -24 l37 -45 -87 -140 c-48 -77 -90 -140 -94 -140 -3 1 -21
21 -39 46 l-33 45 30 47 c16 26 55 89 86 140 32 50 59 92 60 92 2 0 20 -20 40
-45z m-428 -110 l42 -54 -70 -123 c-39 -68 -73 -125 -76 -128 -7 -7 -93 93
-93 109 0 13 106 203 133 239 14 18 18 15 64 -43z m518 4 c11 -16 19 -34 18
-39 -2 -5 -42 -69 -89 -142 l-87 -132 -24 29 c-15 16 -23 37 -21 49 6 30 159
266 172 266 6 0 20 -14 31 -31z m95 -38 c0 -5 11 -76 25 -158 30 -181 31 -193
6 -193 -10 0 -24 -7 -31 -15 -19 -23 -28 -18 -26 18 1 25 -3 32 -18 32 -14 0
-24 -14 -37 -55 -10 -30 -19 -56 -19 -57 -1 -14 -25 8 -73 67 -67 82 -71 59
41 228 41 61 81 112 89 112 7 0 16 7 19 15 7 16 24 21 24 6z m-504 -78 c17
-21 34 -44 38 -51 9 -16 -92 -192 -111 -192 -9 0 -10 7 -3 26 13 34 13 133 -1
172 -8 25 -7 35 6 56 23 35 36 33 71 -11z m-77 -129 c1 -67 -15 -114 -40 -114
-15 0 -19 8 -21 38 l-1 37 -4 -37 c-3 -30 -9 -38 -24 -38 -11 0 -22 7 -26 17
-8 19 19 69 35 66 7 -2 12 7 12 20 0 12 12 40 27 62 23 35 27 37 34 19 4 -10
8 -42 8 -70z m179 1 c21 -27 31 -49 26 -57 -32 -56 -127 -198 -133 -198 -3 0
-7 24 -8 53 -1 28 -8 62 -14 74 -10 18 -7 28 18 65 17 23 38 58 47 76 9 17 20
32 24 32 4 0 22 -21 40 -45z m-2524 -4 c27 -1 28 -3 21 -37 -8 -45 15 -43 27
2 l7 29 136 -9 137 -9 -7 -34 c-8 -42 11 -44 20 -2 l7 31 92 -6 c50 -4 112
-10 138 -13 46 -5 46 -5 41 -39 -7 -44 13 -45 25 -1 l9 32 74 -3 c41 -1 102
-5 137 -8 l63 -6 -7 -34 c-8 -43 9 -45 27 -3 l13 32 110 -7 c156 -10 158 -11
150 -53 -9 -47 17 -41 30 6 l10 33 55 -6 c31 -3 93 -8 139 -12 67 -5 82 -10
78 -21 -4 -8 -9 -26 -12 -39 -10 -39 16 -28 33 14 l14 38 67 -8 c37 -4 97 -7
134 -7 37 -1 70 -5 73 -11 3 -5 -2 -21 -11 -35 -12 -19 -14 -29 -6 -37 8 -8
14 -4 23 15 15 33 23 34 36 5 20 -44 10 -48 -129 -48 -100 0 -129 3 -125 13
15 40 17 56 7 62 -7 4 -17 -10 -27 -34 l-16 -41 -139 0 -139 0 7 35 c4 23 2
35 -5 35 -6 0 -17 -16 -25 -35 l-15 -35 -118 -1 c-65 0 -126 -2 -136 -4 -16
-3 -18 1 -13 31 9 45 -9 45 -28 -1 l-15 -35 -136 0 -136 0 7 36 c5 29 4 36 -7
32 -8 -3 -18 -19 -23 -36 l-9 -32 -138 0 -138 0 6 38 c6 34 5 36 -10 23 -10
-7 -17 -24 -17 -37 0 -23 -1 -23 -140 -26 l-140 -3 0 33 c0 43 -17 41 -26 -3
l-6 -35 -129 0 -129 0 -7 30 c-7 40 -21 47 -32 18 -8 -22 -8 -22 -15 7 -4 17
-2 69 3 115 12 112 19 118 137 109 49 -4 102 -8 118 -8z m2595 -85 c25 -31 22
-65 -11 -115 -31 -47 -36 -50 -75 -50 -24 -1 -43 1 -43 4 0 12 102 175 109
175 5 0 14 -6 20 -14z m69 -131 l22 -35 -38 0 c-21 0 -41 3 -45 6 -7 8 20 64
31 64 4 0 17 -16 30 -35z m532 25 c0 -5 -4 -10 -10 -10 -5 0 -10 5 -10 10 0 6
5 10 10 10 6 0 10 -4 10 -10z m-310 -35 c0 -16 -6 -25 -16 -25 -11 0 -14 5
-10 16 3 9 6 20 6 25 0 5 5 9 10 9 6 0 10 -11 10 -25z m-170 -15 c0 -5 -4 -10
-10 -10 -5 0 -10 5 -10 10 0 6 5 10 10 10 6 0 10 -4 10 -10z m-860 -98 c0 -10
-5 -23 -12 -30 -9 -9 -9 -15 0 -24 8 -8 14 -5 23 15 15 34 26 34 41 2 19 -41
-3 -52 -131 -64 -63 -6 -116 -9 -119 -7 -2 2 2 14 8 26 9 16 9 25 1 33 -8 8
-15 0 -27 -30 l-16 -40 -76 -6 c-43 -4 -105 -9 -140 -13 l-63 -7 11 27 c13 34
13 46 0 46 -6 0 -17 -17 -26 -39 l-15 -38 -77 -7 c-42 -3 -103 -9 -135 -13
l-57 -6 6 32 c9 42 -12 41 -29 -1 l-13 -33 -130 -16 c-130 -16 -158 -13 -135
15 12 15 8 36 -8 36 -5 0 -12 -15 -17 -32 -9 -32 -12 -33 -84 -44 -41 -6 -103
-14 -138 -17 l-63 -5 3 28 c4 39 -13 42 -25 5 -5 -16 -11 -31 -11 -32 -1 -1
-47 -7 -102 -13 -54 -5 -116 -12 -136 -15 -37 -5 -38 -5 -31 26 5 25 3 31 -8
27 -8 -3 -16 -13 -17 -24 -2 -10 -7 -23 -11 -27 -9 -9 -241 -36 -258 -29 -7 2
-13 15 -13 28 0 13 -6 24 -13 24 -15 0 -28 38 -47 135 -12 58 -12 59 14 82 25
21 37 23 142 23 l115 0 -3 -30 c-4 -39 15 -40 26 -1 l9 31 134 0 134 0 -3 -26
c-4 -39 16 -40 27 -2 l10 33 133 0 133 0 -3 -29 c-4 -40 20 -47 28 -8 8 38 14
39 163 41 l121 2 -7 -32 c-5 -24 -3 -31 8 -27 7 2 16 15 19 29 6 24 7 24 143
27 142 3 148 1 127 -39 -9 -15 -7 -19 5 -19 9 0 21 14 26 30 l11 30 139 0
c135 0 139 -1 129 -19 -14 -27 -13 -41 5 -41 8 0 15 6 15 13 0 7 7 23 16 35
14 21 22 22 145 22 118 0 129 -2 129 -18z m350 13 c0 -2 -8 -18 -18 -35 -21
-34 -32 -30 -32 12 0 23 4 28 25 28 14 0 25 -2 25 -5z m290 -1 c0 -10 -24 -54
-30 -54 -7 0 -40 44 -40 54 0 2 16 4 35 4 19 0 35 -2 35 -4z m70 -33 c0 -17
-10 -37 -25 -51 -14 -13 -32 -48 -41 -76 -20 -71 -48 -104 -85 -104 -22 0 -34
8 -50 33 -17 27 -20 43 -15 101 3 38 9 73 14 78 11 11 62 -29 62 -48 0 -8 10
-19 22 -25 18 -10 24 -8 35 7 7 10 11 25 8 32 -5 13 28 69 49 84 16 11 26 -1
26 -31z m110 35 c0 -3 -13 -11 -29 -19 -24 -12 -31 -12 -35 -2 -3 8 0 16 7 19
15 6 57 7 57 2z m225 -6 c3 -5 -1 -10 -9 -10 -8 0 -18 5 -21 10 -3 6 1 10 9
10 8 0 18 -4 21 -10z m120 -50 c12 -19 -5 -30 -25 -17 -11 6 -20 15 -20 19 0
12 38 10 45 -2z"/>
<path d="M1580 2175 c-7 -9 -11 -18 -8 -20 3 -3 11 1 18 10 7 9 11 18 8 20 -3
3 -11 -1 -18 -10z"/>
<path d="M1267 2158 c-12 -10 -15 -23 -10 -55 3 -24 10 -43 14 -43 22 0 6 -18
-20 -23 -21 -4 -30 -13 -33 -29 -2 -17 -8 -22 -25 -20 -28 4 -29 -1 -6 -24 17
-17 16 -17 -15 -11 -29 6 -35 4 -39 -13 -6 -23 -23 -27 -23 -5 0 21 -30 19
-30 -2 -1 -10 -7 -4 -15 15 -9 21 -19 31 -26 26 -9 -5 -10 1 -5 19 9 37 -28
48 -58 17 l-21 -23 23 6 c14 3 22 1 22 -8 0 -8 -10 -11 -27 -9 -29 3 -83 -15
-83 -29 0 -4 -9 -3 -19 3 -25 13 -27 13 -46 -6 -15 -15 -17 -15 -29 1 -7 10
-20 15 -32 12 -17 -4 -16 -5 4 -6 24 -1 32 -31 8 -31 -19 0 -28 16 -35 59 -4
23 -12 35 -24 37 -10 1 -29 9 -42 18 -27 18 -55 21 -55 7 0 -5 6 -11 13 -14 9
-3 9 -9 0 -25 -10 -16 -8 -23 6 -39 18 -19 17 -20 -24 -42 -58 -30 -85 -22
-85 25 0 40 -15 74 -33 74 -7 0 -18 9 -25 20 -15 24 -42 26 -42 4 0 -14 -2
-14 -16 -3 -10 8 -12 15 -5 17 6 2 11 11 11 19 0 9 -6 13 -14 10 -8 -3 -20 1
-27 9 -10 12 -9 16 9 21 24 6 29 28 10 39 -7 4 -10 4 -6 -1 4 -4 3 -14 -3 -22
-14 -16 -43 -18 -33 -1 5 8 0 9 -17 5 -13 -4 -30 -7 -36 -7 -7 0 -13 -4 -13
-10 0 -5 6 -10 14 -10 15 0 30 -27 18 -33 -4 -2 -24 -3 -45 -3 -32 1 -39 -3
-52 -31 -18 -37 -35 -51 -35 -29 0 9 -4 16 -10 16 -5 0 -10 -4 -10 -9 0 -5 -9
-11 -20 -14 -24 -6 -26 -30 -4 -51 8 -9 14 -16 12 -17 -22 -8 -68 -4 -72 6 -3
8 2 11 15 8 29 -8 25 31 -5 45 -18 8 -28 7 -45 -4 -11 -8 -21 -11 -21 -6 0 12
46 32 76 32 23 0 24 2 10 15 -8 9 -19 15 -23 14 -20 -5 -65 15 -78 34 -13 19
-15 -100 -15 -1031 l0 -1052 1530 0 c1353 0 1530 2 1530 15 0 8 7 15 15 15 8
0 15 -7 15 -15 0 -21 28 -19 33 3 4 16 5 16 6 0 1 -22 41 -25 41 -3 0 8 8 15
18 15 14 0 14 2 3 9 -19 12 -131 13 -131 0 0 -5 -4 -9 -10 -9 -15 0 -12 77 3
83 10 4 10 7 0 18 -11 11 -13 11 -13 0 0 -8 -6 -11 -16 -7 -8 3 -27 3 -40 0
-24 -6 -24 -6 -4 -24 11 -9 20 -23 20 -30 0 -7 8 -19 18 -26 15 -12 15 -13 0
-14 -9 0 -22 13 -30 30 -7 17 -21 30 -30 30 -10 0 -22 9 -28 20 -9 17 -8 21 7
26 10 3 27 10 38 14 11 5 27 11 35 13 12 4 11 6 -4 13 -13 5 -21 3 -24 -4 -2
-7 -16 -12 -32 -12 -16 0 -30 -5 -32 -12 -3 -7 -14 -9 -31 -4 -36 9 -35 28 1
21 26 -6 27 -6 7 11 -19 16 -18 16 25 11 25 -3 54 -1 65 3 17 7 17 9 2 9 -9 1
-16 7 -15 14 2 7 -6 11 -19 9 -12 -2 -24 2 -28 8 -8 13 -45 13 -45 0 0 -5 7
-10 15 -10 28 0 15 -17 -22 -28 -20 -6 -38 -10 -40 -8 -2 1 -4 27 -4 57 -2 62
-23 98 -61 100 -17 1 -18 3 -5 6 21 6 22 12 0 28 -22 17 -10 49 17 42 16 -4
20 0 20 19 0 15 -6 24 -16 24 -12 0 -15 6 -10 24 6 23 3 25 -35 28 l-40 3 21
22 c11 13 38 26 60 29 44 7 55 24 34 51 -13 17 -15 17 -34 -6 l-20 -23 -20 25
c-23 29 -60 26 -60 -4 0 -11 -4 -19 -10 -19 -5 0 -20 -11 -34 -25 -14 -14 -28
-21 -31 -15 -10 17 -25 11 -25 -9 0 -12 -8 -21 -22 -24 -17 -3 -14 -5 10 -6
18 0 32 -6 32 -13 0 -7 7 -25 14 -41 13 -24 13 -27 0 -27 -8 0 -25 11 -38 25
-15 16 -30 23 -40 19 -35 -13 -42 1 -35 67 3 39 2 72 -5 84 -5 11 -9 25 -8 31
1 6 -11 10 -28 9 -23 -1 -30 2 -28 14 2 12 14 15 51 12 53 -3 64 15 25 42 -19
13 -20 16 -5 16 20 1 21 11 6 66 -17 65 -31 95 -44 95 -7 0 -15 9 -18 20 -7
26 -21 25 -35 -2 -9 -19 -10 -11 -6 36 2 33 6 62 9 64 3 3 -2 14 -11 23 -16
17 -15 19 2 26 11 3 23 12 27 20 4 7 19 13 32 13 33 0 41 18 13 29 -22 9 -22
10 7 11 27 1 28 2 13 14 -13 9 -14 16 -6 24 8 8 8 15 -2 27 -9 11 -16 13 -24
5 -21 -21 -39 -11 -33 20 8 37 -7 47 -21 15 -7 -14 -17 -25 -24 -24 -10 0 -10
2 0 6 14 5 17 43 3 43 -5 0 -23 -8 -39 -17 -26 -15 -30 -22 -26 -48 2 -16 2
-25 -2 -18 -3 7 -16 10 -33 7 -18 -4 -33 0 -44 10 -8 9 -23 16 -31 16 -18 0
-20 8 -6 30 5 8 12 11 16 7 13 -13 56 72 50 99 -8 32 -25 31 -18 -1 4 -24 2
-25 -42 -25 -34 0 -46 -4 -46 -15 0 -8 -7 -15 -15 -15 -8 0 -15 5 -15 10 0 6
-7 10 -15 10 -8 0 -19 9 -25 21 -9 16 -14 18 -26 8 -9 -7 -11 -15 -5 -18 13
-9 11 -74 -3 -83 -6 -4 -18 -8 -26 -8 -13 0 -13 2 -1 9 12 7 12 13 3 24 -7 7
-9 16 -6 19 3 4 -13 9 -35 13 -34 6 -40 11 -43 33 -3 30 -23 32 -23 3 0 -11
-3 -23 -7 -27 -5 -4 -8 4 -8 17 0 24 -16 49 -31 49 -4 0 -10 -12 -13 -26 -5
-19 -10 -24 -17 -17 -8 8 -7 18 2 34 17 34 29 40 68 32 24 -4 32 -2 27 6 -4 6
-14 11 -22 11 -20 0 -18 16 4 25 16 7 15 8 -3 15 -16 7 -12 9 18 9 42 1 43 21
1 21 -16 0 -24 6 -25 18 0 13 -2 12 -9 -5 -11 -26 -35 -30 -56 -8 -22 22 -74
13 -90 -16 l-13 -24 -1 25 -1 25 -18 -22 c-23 -28 -41 -29 -41 -4 0 11 -5 23
-11 27 -6 3 -8 17 -5 30 7 25 -8 34 -18 12 -3 -9 -9 -7 -17 7 -12 19 -12 19
-21 0 -5 -13 -6 -4 -2 23 6 45 -1 53 -22 25 -7 -10 -16 -14 -20 -10 -5 4 -2
12 6 17 10 7 11 10 3 10 -16 0 -17 27 -1 32 12 4 16 63 5 75 -4 3 -13 -2 -21
-12 -13 -19 -14 -19 -37 3 -13 12 -36 33 -51 46 -31 28 -36 46 -13 46 8 0 15
-7 15 -15 0 -8 5 -15 10 -15 12 0 13 17 1 24 -5 3 -11 19 -13 36 -4 23 3 38
28 65 17 19 37 35 43 35 17 0 13 27 -5 34 -12 5 -15 20 -14 68 2 69 -7 109
-21 87 -6 -10 -11 -10 -22 0 -11 9 -17 9 -22 1 -4 -7 -16 -9 -27 -7 -15 4 -19
2 -16 -11 6 -20 -14 -42 -37 -42 -19 0 -20 19 0 26 8 4 12 10 9 15 -3 5 -10 7
-15 4 -8 -5 -13 7 -11 26 1 3 -6 6 -14 6 -8 0 -14 -10 -14 -24 0 -12 -4 -23
-10 -23 -5 0 -10 6 -10 13 0 13 -30 47 -41 47 -3 0 -13 -6 -22 -12z m233 -36
c0 -20 -26 -41 -39 -33 -12 8 -12 11 0 25 15 16 39 21 39 8z m-193 -8 c-3 -3
-12 -4 -19 -1 -8 3 -5 6 6 6 11 1 17 -2 13 -5z m-1032 -84 c-3 -5 -11 -10 -16
-10 -6 0 -7 5 -4 10 3 6 11 10 16 10 6 0 7 -4 4 -10z m418 -27 c10 -9 -13 -33
-32 -32 -10 0 -11 2 -3 6 6 2 12 11 12 19 0 15 12 19 23 7z m847 -33 c0 -11
-7 -20 -15 -20 -15 0 -21 21 -8 33 12 13 23 7 23 -13z m-535 -20 c-3 -5 -11
-10 -16 -10 -6 0 -7 5 -4 10 3 6 11 10 16 10 6 0 7 -4 4 -10z m-365 -50 c0 -5
-2 -10 -4 -10 -3 0 -8 5 -11 10 -3 6 -1 10 4 10 6 0 11 -4 11 -10z m940 -330
c0 -5 -2 -10 -4 -10 -3 0 -8 5 -11 10 -3 6 -1 10 4 10 6 0 11 -4 11 -10z m394
-275 c-4 -8 -8 -15 -10 -15 -2 0 -4 7 -4 15 0 8 4 15 10 15 5 0 7 -7 4 -15z
m46 -21 c0 -17 -22 -14 -28 4 -2 7 3 12 12 12 9 0 16 -7 16 -16z m195 -114 c3
-5 -1 -10 -10 -10 -9 0 -13 5 -10 10 3 6 8 10 10 10 2 0 7 -4 10 -10z m185
-191 c0 -11 -4 -17 -10 -14 -5 3 -10 13 -10 21 0 8 5 14 10 14 6 0 10 -9 10
-21z m-45 -381 c-6 -19 -5 -21 6 -10 22 21 42 15 29 -8 -7 -14 -7 -26 -1 -39
6 -10 7 -22 3 -26 -4 -5 -1 -5 6 -1 6 4 12 25 12 48 0 35 2 39 15 28 12 -10
15 -10 16 1 0 10 2 11 6 2 2 -7 9 -13 15 -13 6 0 8 7 4 15 -3 8 -2 15 3 15 13
0 21 -80 10 -107 -10 -27 -2 -74 15 -85 6 -4 21 -8 34 -8 24 0 29 -13 10 -31
-8 -7 -12 -30 -10 -58 2 -33 0 -42 -7 -31 -6 8 -8 25 -5 36 3 12 1 25 -5 28
-7 5 -11 -7 -11 -33 0 -35 -4 -43 -30 -56 -16 -9 -31 -12 -31 -8 -2 9 -5 36
-8 78 l-2 30 -11 -25 c-11 -25 -11 -25 -15 -2 -5 23 -19 30 -25 11 -3 -10 -57
7 -68 22 -9 13 -36 -15 -37 -38 -1 -16 4 -23 17 -23 10 0 22 -4 25 -10 3 -5
-1 -10 -10 -10 -9 0 -13 -5 -10 -10 4 -6 15 -8 26 -5 23 8 25 -7 4 -25 -8 -7
-15 -21 -15 -31 0 -11 -5 -19 -11 -19 -6 0 -18 -9 -27 -20 -10 -11 -31 -24
-49 -29 -36 -10 -34 -17 -32 121 0 36 -4 69 -9 72 -6 3 -8 15 -5 26 3 11 0 27
-7 35 -10 12 -9 15 4 15 9 0 16 5 16 11 0 7 11 8 29 4 17 -3 32 -2 36 4 3 6
-1 11 -9 11 -21 0 -59 38 -51 50 4 6 0 10 -7 11 -9 0 -9 2 2 6 22 9 36 26 45
52 5 17 10 20 18 12 6 -6 17 -11 25 -11 12 0 12 3 2 15 -13 16 -9 18 28 15 12
-1 22 3 22 9 0 6 7 11 16 11 11 0 14 -6 9 -22z m221 -174 c-3 -9 -6 -21 -6
-27 0 -7 -5 -4 -11 6 -11 18 -5 37 13 37 5 0 7 -7 4 -16z m-399 -136 c-3 -7
-5 -2 -5 12 0 14 2 19 5 13 2 -7 2 -19 0 -25z m210 -14 c-3 -3 -12 -4 -19 -1
-8 3 -5 6 6 6 11 1 17 -2 13 -5z m53 -43 c0 -6 -4 -13 -10 -16 -5 -3 -10 1
-10 9 0 9 5 16 10 16 6 0 10 -4 10 -9z m-110 -56 c0 -9 -6 -12 -16 -8 -13 5
-13 7 -2 14 17 11 18 11 18 -6z m287 -61 c-3 -3 -12 -4 -19 -1 -8 3 -5 6 6 6
11 1 17 -2 13 -5z m413 -4 c0 -5 -4 -10 -10 -10 -5 0 -10 5 -10 10 0 6 5 10
10 10 6 0 10 -4 10 -10z m-790 -15 c0 -8 -7 -15 -15 -15 -8 0 -15 7 -15 15 0
8 7 15 15 15 8 0 15 -7 15 -15z"/>
<path d="M2351 544 c0 -11 3 -14 6 -6 3 7 2 16 -1 19 -3 4 -6 -2 -5 -13z"/>
<path d="M2355 430 c-3 -5 -1 -10 4 -10 6 0 11 5 11 10 0 6 -2 10 -4 10 -3 0
-8 -4 -11 -10z"/>
<path d="M2317 414 c-4 -4 -7 -14 -7 -23 0 -11 3 -12 11 -4 6 6 10 16 7 23 -2
6 -7 8 -11 4z"/>
<path d="M2400 380 c0 -13 11 -13 30 0 12 8 11 10 -7 10 -13 0 -23 -4 -23 -10z"/>
<path d="M2215 350 c-3 -5 1 -10 9 -10 8 0 18 5 21 10 3 6 -1 10 -9 10 -8 0
-18 -4 -21 -10z"/>
<path d="M2260 259 c0 -5 5 -7 10 -4 6 3 10 8 10 11 0 2 -4 4 -10 4 -5 0 -10
-5 -10 -11z"/>
<path d="M5 2120 c-3 -5 -1 -10 4 -10 6 0 11 5 11 10 0 6 -2 10 -4 10 -3 0 -8
-4 -11 -10z"/>
<path d="M7260 2120 c0 -5 5 -10 11 -10 5 0 7 5 4 10 -3 6 -8 10 -11 10 -2 0
-4 -4 -4 -10z"/>
<path d="M425 2110 c-3 -5 -2 -10 4 -10 5 0 13 5 16 10 3 6 2 10 -4 10 -5 0
-13 -4 -16 -10z"/>
<path d="M506 2083 c-11 -11 -6 -23 9 -23 8 0 15 4 15 9 0 13 -16 22 -24 14z"/>
<path d="M1005 2049 c-5 -7 4 -9 25 -5 43 6 50 16 12 16 -17 0 -34 -5 -37 -11z"/>
<path d="M1057 2016 c-6 -14 0 -26 13 -26 3 0 6 9 6 20 0 23 -11 27 -19 6z"/>
<path d="M760 1989 c0 -5 5 -7 10 -4 6 3 10 8 10 11 0 2 -4 4 -10 4 -5 0 -10
-5 -10 -11z"/>
<path d="M1520 1806 c0 -11 10 -16 31 -16 38 0 35 24 -4 28 -19 2 -27 -1 -27
-12z"/>
<path d="M1673 1795 c-7 -8 -9 -16 -4 -19 5 -3 12 1 15 10 8 22 4 25 -11 9z"/>
<path d="M1700 1720 c0 -5 5 -10 10 -10 6 0 10 5 10 10 0 6 -4 10 -10 10 -5 0
-10 -4 -10 -10z"/>
<path d="M1662 1653 c-14 -24 -16 -53 -4 -53 22 1 31 17 23 45 -7 29 -8 30
-19 8z"/>
<path d="M1720 1590 c0 -5 5 -10 10 -10 6 0 10 5 10 10 0 6 -4 10 -10 10 -5 0
-10 -4 -10 -10z"/>
<path d="M2370 1581 c0 -6 5 -13 10 -16 6 -3 10 -17 10 -31 0 -32 24 -31 39 2
10 24 10 25 -10 19 -19 -6 -21 -4 -16 14 4 16 1 21 -14 21 -10 0 -19 -4 -19
-9z"/>
<path d="M2241 1564 c0 -11 3 -14 6 -6 3 7 2 16 -1 19 -3 4 -6 -2 -5 -13z"/>
<path d="M2273 1555 c-7 -8 -13 -19 -13 -25 0 -13 17 -13 25 0 5 8 12 7 22 -1
12 -10 16 -10 23 1 10 16 3 33 -10 25 -5 -3 -11 -1 -15 5 -8 13 -17 12 -32 -5z"/>
<path d="M1970 1540 c0 -5 5 -10 11 -10 5 0 7 5 4 10 -3 6 -8 10 -11 10 -2 0
-4 -4 -4 -10z"/>
<path d="M2350 1540 c0 -5 5 -10 10 -10 6 0 10 5 10 10 0 6 -4 10 -10 10 -5 0
-10 -4 -10 -10z"/>
<path d="M2073 1478 c-5 -7 -6 -24 -2 -38 5 -18 7 -20 8 -6 1 16 3 17 17 5 14
-11 19 -10 34 9 10 12 23 22 30 22 6 0 8 5 5 10 -9 14 -81 12 -92 -2z"/>
<path d="M2241 1464 c0 -11 3 -14 6 -6 3 7 2 16 -1 19 -3 4 -6 -2 -5 -13z"/>
<path d="M2300 1469 c-13 -8 -12 -11 4 -24 15 -11 17 -21 11 -52 -6 -37 -6
-37 23 17 16 30 28 55 28 56 -7 8 -55 11 -66 3z"/>
<path d="M2385 1460 c3 -5 8 -10 11 -10 2 0 4 5 4 10 0 6 -5 10 -11 10 -5 0
-7 -4 -4 -10z"/>
<path d="M2115 1380 c3 -5 12 -7 20 -3 21 7 19 13 -6 13 -11 0 -18 -4 -14 -10z"/>
<path d="M2335 1370 c-7 -21 2 -60 13 -60 4 0 7 18 7 40 0 43 -10 53 -20 20z"/>
<path d="M2310 1331 c0 -11 4 -22 9 -25 4 -3 6 6 3 19 -5 30 -12 33 -12 6z"/>
<path d="M2275 1283 c9 -38 22 -50 37 -35 9 9 8 17 -2 37 -19 35 -44 34 -35
-2z"/>
<path d="M2802 1230 c0 -19 2 -27 5 -17 2 9 2 25 0 35 -3 9 -5 1 -5 -18z"/>
<path d="M2850 1239 c0 -5 5 -7 10 -4 6 3 10 8 10 11 0 2 -4 4 -10 4 -5 0 -10
-5 -10 -11z"/>
<path d="M2518 1093 c7 -3 16 -2 19 1 4 3 -2 6 -13 5 -11 0 -14 -3 -6 -6z"/>
<path d="M2472 1056 c13 -14 28 -12 28 5 0 5 -9 9 -20 9 -17 0 -19 -2 -8 -14z"/>
<path d="M2538 1043 c7 -3 16 -2 19 1 4 3 -2 6 -13 5 -11 0 -14 -3 -6 -6z"/>
<path d="M2470 990 c-13 -9 -13 -11 0 -20 10 -6 16 -6 18 0 7 20 -3 30 -18 20z"/>
<path d="M2631 991 c-8 -5 -9 -11 -3 -15 5 -3 12 1 16 9 6 17 6 18 -13 6z"/>
<path d="M2673 993 c-17 -6 -17 -20 0 -26 8 -3 13 3 13 14 0 11 0 19 -1 18 0
0 -6 -3 -12 -6z"/>
<path d="M2545 950 c-7 -11 4 -18 35 -20 62 -5 66 6 6 20 -20 4 -38 4 -41 0z"/>
<path d="M2640 944 c0 -8 5 -12 10 -9 6 4 8 11 5 16 -9 14 -15 11 -15 -7z"/>
<path d="M2530 895 c0 -8 4 -15 9 -15 5 0 11 7 15 15 3 9 0 15 -9 15 -8 0 -15
-7 -15 -15z"/>
<path d="M2728 903 c7 -3 16 -2 19 1 4 3 -2 6 -13 5 -11 0 -14 -3 -6 -6z"/>
<path d="M2561 814 c0 -11 3 -14 6 -6 3 7 2 16 -1 19 -3 4 -6 -2 -5 -13z"/>
<path d="M2737 793 c-4 -3 -7 -11 -7 -17 0 -6 5 -5 12 2 6 6 9 14 7 17 -3 3
-9 2 -12 -2z"/>
<path d="M2560 770 c0 -11 7 -20 15 -20 13 0 14 4 5 20 -6 11 -13 20 -15 20
-3 0 -5 -9 -5 -20z"/>
<path d="M2728 703 c7 -3 16 -2 19 1 4 3 -2 6 -13 5 -11 0 -14 -3 -6 -6z"/>
<path d="M2560 685 c0 -8 4 -15 9 -15 5 0 11 7 15 15 3 9 0 15 -9 15 -8 0 -15
-7 -15 -15z"/>
<path d="M2610 680 c0 -5 5 -10 11 -10 5 0 7 5 4 10 -3 6 -8 10 -11 10 -2 0
-4 -4 -4 -10z"/>
<path d="M2522 659 c2 -6 8 -10 13 -10 5 0 11 4 13 10 2 6 -4 11 -13 11 -9 0
-15 -5 -13 -11z"/>
<path d="M2640 605 c0 -8 5 -15 10 -15 6 0 10 7 10 15 0 8 -4 15 -10 15 -5 0
-10 -7 -10 -15z"/>
<path d="M2514 566 c-3 -14 -1 -33 5 -43 8 -15 10 -10 11 25 0 47 -6 55 -16
18z"/>
<path d="M2906 543 c-3 -4 -6 -19 -6 -35 0 -16 -4 -27 -8 -24 -13 8 -31 -9
-23 -22 6 -9 15 -7 37 10 15 13 30 22 31 21 8 -8 20 -1 20 10 0 15 -42 49 -51
40z"/>
<path d="M2960 540 c0 -5 7 -10 15 -10 8 0 15 5 15 10 0 6 -7 10 -15 10 -8 0
-15 -4 -15 -10z"/>
<path d="M2810 468 l0 -43 15 29 c19 36 19 56 0 56 -11 0 -15 -11 -15 -42z"/>
<path d="M2881 424 c0 -11 3 -14 6 -6 3 7 2 16 -1 19 -3 4 -6 -2 -5 -13z"/>
<path d="M2800 370 c0 -11 7 -20 15 -20 17 0 18 2 9 24 -9 23 -24 20 -24 -4z"/>
<path d="M2860 311 c0 -27 5 -41 16 -45 9 -4 20 -3 23 0 3 4 0 9 -6 11 -15 5
-17 33 -3 33 6 0 10 -4 10 -9 0 -5 9 -11 20 -14 11 -3 20 -1 20 4 0 5 -6 9
-14 9 -7 0 -22 11 -32 25 -26 35 -34 31 -34 -14z"/>
<path d="M2920 250 c0 -5 9 -10 20 -10 11 0 20 5 20 10 0 6 -9 10 -20 10 -11
0 -20 -4 -20 -10z"/>
<path d="M3037 213 c-4 -3 -7 -11 -7 -17 0 -6 5 -5 12 2 6 6 9 14 7 17 -3 3
-9 2 -12 -2z"/>
<path d="M3188 193 c7 -3 16 -2 19 1 4 3 -2 6 -13 5 -11 0 -14 -3 -6 -6z"/>
<path d="M3648 193 c6 -2 18 -2 25 0 6 3 1 5 -13 5 -14 0 -19 -2 -12 -5z"/>
<path d="M3441 155 c-1 -28 2 -36 10 -28 8 8 8 19 1 40 -10 28 -10 28 -11 -12z"/>
<path d="M4545 150 c3 -5 8 -10 11 -10 2 0 4 5 4 10 0 6 -5 10 -11 10 -5 0 -7
-4 -4 -10z"/>
<path d="M3786 125 c-3 -8 -1 -15 5 -15 6 0 8 -9 4 -20 -3 -11 -2 -28 4 -37 6
-10 11 -13 11 -6 0 6 10 13 21 15 12 2 26 14 31 27 8 22 7 23 -22 18 -22 -5
-30 -3 -30 8 0 20 -17 28 -24 10z"/>
<path d="M3451 110 c-19 -5 -41 -6 -50 -3 -10 3 -7 -3 7 -16 21 -18 26 -19 39
-6 8 8 26 15 39 15 14 0 22 4 19 10 -7 11 -6 11 -54 0z"/>
<path d="M3078 103 c7 -3 16 -2 19 1 4 3 -2 6 -13 5 -11 0 -14 -3 -6 -6z"/>
<path d="M3681 93 c-1 -20 -7 -23 -41 -23 -33 0 -40 -3 -40 -20 0 -13 7 -20
20 -20 11 0 20 -7 20 -15 0 -8 9 -15 20 -15 21 0 35 48 27 91 -4 23 -4 23 -6
2z"/>
<path d="M3750 103 c0 -5 5 -15 10 -23 8 -12 10 -11 10 8 0 12 -4 22 -10 22
-5 0 -10 -3 -10 -7z"/>
<path d="M4463 93 c-21 -8 -15 -43 6 -43 11 0 23 5 27 11 8 14 -17 38 -33 32z"/>
<path d="M3910 60 c0 -5 5 -10 10 -10 6 0 10 5 10 10 0 6 -4 10 -10 10 -5 0
-10 -4 -10 -10z"/>
<path d="M3406 52 c-6 -10 4 -52 13 -52 3 0 6 14 7 30 1 29 -9 39 -20 22z"/>
<path d="M4241 44 c0 -11 3 -14 6 -6 3 7 2 16 -1 19 -3 4 -6 -2 -5 -13z"/>
<path d="M3706 34 c-10 -26 -7 -34 14 -34 21 0 24 8 14 34 -8 20 -20 20 -28 0z"/>
<path d="M3755 40 c-3 -5 -1 -10 4 -10 6 0 11 5 11 10 0 6 -2 10 -4 10 -3 0
-8 -4 -11 -10z"/>
<path d="M4400 40 c0 -5 9 -10 20 -10 11 0 20 5 20 10 0 6 -9 10 -20 10 -11 0
-20 -4 -20 -10z"/>
<path d="M3943 25 c-3 -9 -3 -18 -1 -21 3 -3 8 4 11 16 6 23 -1 27 -10 5z"/>
<path d="M3501 14 c0 -11 3 -14 6 -6 3 7 2 16 -1 19 -3 4 -6 -2 -5 -13z"/>
<path d="M3830 15 c0 -8 5 -15 10 -15 6 0 10 7 10 15 0 8 -4 15 -10 15 -5 0
-10 -7 -10 -15z"/>
</g>
</svg>
